<svg width="24" height="24" viewBox="0 0 24 24" fill="none" xmlns="http://www.w3.org/2000/svg">
<mask id="mask0_15_19" style="mask-type:alpha" maskUnits="userSpaceOnUse" x="4" y="2" width="16" height="10">
<rect width="16" height="10" transform="matrix(1 0 0 -1 4 12)" fill="#D9D9D9"/>
</mask>
<g mask="url(#mask0_15_19)">
<path d="M6 22C5.45 22 4.97917 21.8042 4.5875 21.4125C4.19583 21.0208 4 20.55 4 20V4C4 3.45 4.19583 2.97917 4.5875 2.5875C4.97917 2.19583 5.45 2 6 2H14L20 8V20C20 20.55 19.8042 21.0208 19.4125 21.4125C19.0208 21.8042 18.55 22 18 22H6Z" fill="#7875FE"/>
</g>
<rect x="4" y="11" width="4" height="6" fill="#7875FE"/>
<rect x="12" y="11" width="4" height="6" fill="#7875FE"/>
<rect x="16" y="17" width="4" height="5" fill="#7875FE"/>
<rect x="8" y="17" width="4" height="5" fill="#7875FE"/>
</svg>
